<svg width="36" height="36" viewBox="0 0 36 36" fill="none" xmlns="http://www.w3.org/2000/svg">
<rect width="36" height="36" rx="5.72727" fill="#9562FF"/>
<path d="M21.7797 7.08746L18.7608 5.34221C18.3947 5.13051 17.9433 5.13065 17.5772 5.34257L7.53133 11.1586C7.16637 11.3699 6.94165 11.7597 6.94165 12.1814V23.5556C6.94165 23.9825 7.17194 24.3763 7.54407 24.5856L9.05324 25.4345C9.41856 25.64 9.8654 25.6366 10.2276 25.4256L28.4716 14.7965C28.835 14.5848 29.0585 14.1959 29.0585 13.7753V12.0989C29.0585 11.7224 28.8792 11.3685 28.5756 11.1458L27.145 10.0967C26.7686 9.82069 26.265 9.79205 25.8597 10.0236L14.1124 16.7364C13.3245 17.1866 12.3442 16.6177 12.3442 15.7103V15.1449C12.3442 14.7184 12.5741 14.325 12.9456 14.1155L21.7687 9.14002C22.5655 8.69068 22.5716 7.54532 21.7797 7.08746Z" fill="white"/>
<path d="M13.7165 26.6413L27.2882 18.8477C28.0761 18.3952 29.0585 18.964 29.0585 19.8725V23.6458C29.0585 24.0696 28.8316 24.4609 28.4639 24.6715L18.023 30.6485C17.645 30.8649 17.1787 30.8559 16.8095 30.6251L13.6787 28.6683C12.9217 28.1952 12.9424 27.0859 13.7165 26.6413Z" fill="white"/>
</svg>
